<?xml version="1.0" encoding="iso-8859-1"?>
<!-- Generator: Adobe Illustrator 16.0.0, SVG Export Plug-In . SVG Version: 6.00 Build 0)  -->
<!DOCTYPE svg PUBLIC "-//W3C//DTD SVG 1.1//EN" "http://www.w3.org/Graphics/SVG/1.1/DTD/svg11.dtd">
<svg version="1.1" id="Capa_1" xmlns="http://www.w3.org/2000/svg" xmlns:xlink="http://www.w3.org/1999/xlink" x="0px" y="0px"
	 width="106.048px" height="106.047px" viewBox="0 0 106.048 106.047" style="enable-background:new 0 0 106.048 106.047;"
	 xml:space="preserve">
<g>
	<path style="fill:#010002;" d="M86.589,56.141c-1.471,0-2.822,0.813-3.511,2.113L77.351,69.04l-7.053-20.66
		c-0.538-1.559-1.978-2.63-3.624-2.688c-1.699-0.047-3.17,0.911-3.812,2.429l-4.836,11.49l-7.633-45.738
		c-0.35-1.921-2.151-3.376-3.998-3.263c-1.958,0.042-3.588,1.326-3.855,3.268l-6.739,53.076l-5.466-28.49
		c-0.324-1.678-1.698-2.967-3.399-3.189c-1.67-0.223-3.358,0.673-4.093,2.227l-8.945,18.641H0v7.954h16.399
		c1.528,0,2.928-0.881,3.591-2.258l4.803-10.025l7.759,40.405c0.36,1.875,1.999,3.227,3.902,3.227c0.031,0,0.075,0,0.106,0
		c1.947-0.053,3.573-1.508,3.839-3.429l6.633-52.164L52.6,74.192c0.312,1.73,1.729,3.051,3.475,3.242
		c1.766,0.166,3.412-0.793,4.096-2.413l5.976-14.183l6.648,19.469c0.518,1.497,1.874,2.548,3.443,2.678
		c1.585,0.088,3.086-0.699,3.837-2.103l8.906-16.787h17.067v-7.954H86.589z"/>
</g>
<g>
</g>
<g>
</g>
<g>
</g>
<g>
</g>
<g>
</g>
<g>
</g>
<g>
</g>
<g>
</g>
<g>
</g>
<g>
</g>
<g>
</g>
<g>
</g>
<g>
</g>
<g>
</g>
<g>
</g>
</svg>
